<svg width="382" height="118" viewBox="0 0 382 118" fill="none" xmlns="http://www.w3.org/2000/svg">
<rect x="5" y="5" width="372" height="108" stroke="black" stroke-width="10"/>
<rect width="89" height="118" fill="black"/>
<path d="M39.2504 93V24.648H58.2584V93H39.2504ZM26.4824 40.392V24.648H57.2984V40.392H26.4824Z" fill="white"/>
<path d="M104.664 93V24.648H123.864V93H104.664ZM120.312 93V76.68H152.28V93H120.312ZM182.066 94.152C176.562 94.152 171.73 93.128 167.57 91.08C163.41 88.968 160.146 86.056 157.778 82.344C155.474 78.568 154.322 74.248 154.322 69.384C154.322 64.584 155.442 60.328 157.682 56.616C159.986 52.904 163.122 49.992 167.09 47.88C171.058 45.704 175.538 44.616 180.53 44.616C185.458 44.616 189.81 45.64 193.586 47.688C197.362 49.672 200.306 52.456 202.418 56.04C204.594 59.624 205.682 63.72 205.682 68.328C205.682 69.288 205.618 70.312 205.49 71.4C205.426 72.424 205.234 73.64 204.914 75.048L162.29 75.336V63.816L197.906 63.528L189.17 68.616C189.17 66.056 188.85 63.976 188.21 62.376C187.634 60.712 186.738 59.464 185.522 58.632C184.306 57.8 182.77 57.384 180.914 57.384C178.994 57.384 177.33 57.864 175.922 58.824C174.514 59.784 173.426 61.16 172.658 62.952C171.954 64.744 171.602 66.92 171.602 69.48C171.602 72.104 171.986 74.312 172.754 76.104C173.586 77.832 174.77 79.144 176.306 80.04C177.842 80.936 179.762 81.384 182.066 81.384C184.306 81.384 186.258 81.032 187.922 80.328C189.65 79.56 191.218 78.376 192.626 76.776L202.034 86.088C199.666 88.776 196.818 90.792 193.49 92.136C190.162 93.48 186.354 94.152 182.066 94.152ZM230.022 93.96C225.606 93.96 221.702 92.904 218.31 90.792C214.918 88.68 212.262 85.8 210.342 82.152C208.422 78.44 207.462 74.184 207.462 69.384C207.462 64.584 208.422 60.328 210.342 56.616C212.262 52.904 214.918 50.024 218.31 47.976C221.702 45.864 225.606 44.808 230.022 44.808C232.774 44.808 235.302 45.288 237.606 46.248C239.974 47.144 241.926 48.424 243.462 50.088C245.062 51.752 246.086 53.672 246.534 55.848V82.92C246.086 85.096 245.062 87.016 243.462 88.68C241.926 90.344 239.974 91.656 237.606 92.616C235.302 93.512 232.774 93.96 230.022 93.96ZM234.246 77.448C236.614 77.448 238.502 76.712 239.91 75.24C241.382 73.704 242.118 71.752 242.118 69.384C242.118 67.784 241.798 66.408 241.158 65.256C240.518 64.04 239.59 63.08 238.374 62.376C237.222 61.672 235.878 61.32 234.342 61.32C232.806 61.32 231.43 61.672 230.214 62.376C229.062 63.08 228.134 64.04 227.43 65.256C226.726 66.472 226.374 67.848 226.374 69.384C226.374 70.92 226.694 72.296 227.334 73.512C228.038 74.728 228.998 75.688 230.214 76.392C231.43 77.096 232.774 77.448 234.246 77.448ZM241.542 93V80.328L244.134 68.808L241.542 57.384V45.768H259.878V93H241.542ZM267.976 93V45.768H286.792V93H267.976ZM286.792 67.464L278.056 59.688C280.488 54.568 283.304 50.824 286.504 48.456C289.768 46.024 293.832 44.808 298.696 44.808C300.872 44.808 302.728 45.064 304.264 45.576C305.864 46.088 307.144 46.824 308.104 47.784L297.544 62.76C297.096 62.248 296.424 61.832 295.528 61.512C294.696 61.128 293.704 60.936 292.552 60.936C290.632 60.936 289.192 61.512 288.232 62.664C287.272 63.752 286.792 65.352 286.792 67.464ZM339.158 93V66.504C339.158 64.648 338.614 63.24 337.526 62.28C336.502 61.256 335.19 60.744 333.59 60.744C332.502 60.744 331.51 60.968 330.614 61.416C329.782 61.864 329.11 62.536 328.598 63.432C328.15 64.264 327.926 65.288 327.926 66.504L320.63 63.24C320.63 59.4 321.462 56.104 323.126 53.352C324.854 50.6 327.19 48.488 330.134 47.016C333.142 45.544 336.534 44.808 340.31 44.808C343.702 44.808 346.71 45.576 349.334 47.112C352.022 48.584 354.134 50.632 355.67 53.256C357.206 55.816 357.974 58.792 357.974 62.184V93H339.158ZM309.11 93V45.768H327.926V93H309.11Z" fill="black"/>
</svg>
